<?xml version="1.0" encoding="UTF-8" standalone="no"?>
<!-- Created with Inkscape (http://www.inkscape.org/) -->

<svg
   width="350"
   height="350"
   viewBox="0 0 92.604167 92.604167"
   version="1.1"
   id="svg1"
   xml:space="preserve"
   inkscape:version="1.3.2 (091e20ef0f, 2023-11-25)"
   sodipodi:docname="yf.svg"
   inkscape:export-filename="yf192.png"
   inkscape:export-xdpi="52.662857"
   inkscape:export-ydpi="52.662857"
   xmlns:inkscape="http://www.inkscape.org/namespaces/inkscape"
   xmlns:sodipodi="http://sodipodi.sourceforge.net/DTD/sodipodi-0.dtd"
   xmlns:xlink="http://www.w3.org/1999/xlink"
   xmlns="http://www.w3.org/2000/svg"
   xmlns:svg="http://www.w3.org/2000/svg"><sodipodi:namedview
     id="namedview1"
     pagecolor="#ffffff"
     bordercolor="#000000"
     borderopacity="0.25"
     inkscape:showpageshadow="2"
     inkscape:pageopacity="0.0"
     inkscape:pagecheckerboard="0"
     inkscape:deskcolor="#d1d1d1"
     inkscape:document-units="mm"
     inkscape:zoom="0.82492985"
     inkscape:cx="-139.40579"
     inkscape:cy="133.34467"
     inkscape:window-width="2194"
     inkscape:window-height="1206"
     inkscape:window-x="0"
     inkscape:window-y="0"
     inkscape:window-maximized="1"
     inkscape:current-layer="layer2" /><defs
     id="defs1"><linearGradient
       id="linearGradient30"
       inkscape:collect="always"><stop
         style="stop-color:#feffe8;stop-opacity:1"
         offset="0.84932035"
         id="stop30" /><stop
         style="stop-color:#d3d3d3;stop-opacity:1;"
         offset="1"
         id="stop31" /></linearGradient><linearGradient
       id="linearGradient28"
       inkscape:collect="always"><stop
         style="stop-color:#fa6513;stop-opacity:1;"
         offset="0"
         id="stop28" /><stop
         style="stop-color:#f47b17;stop-opacity:1"
         offset="1"
         id="stop29" /></linearGradient><linearGradient
       id="linearGradient26"
       inkscape:collect="always"><stop
         style="stop-color:#fb6511;stop-opacity:1"
         offset="0"
         id="stop26" /><stop
         style="stop-color:#f47b17;stop-opacity:1"
         offset="1"
         id="stop27" /></linearGradient><linearGradient
       id="linearGradient9"
       inkscape:collect="always"><stop
         style="stop-color:#fc661e;stop-opacity:1"
         offset="0"
         id="stop8" /><stop
         style="stop-color:#ff661d;stop-opacity:0;"
         offset="1"
         id="stop9" /></linearGradient><linearGradient
       id="linearGradient7"
       inkscape:collect="always"><stop
         style="stop-color:#ff016c;stop-opacity:1"
         offset="0"
         id="stop6" /><stop
         style="stop-color:#ff016c;stop-opacity:0;"
         offset="1"
         id="stop7" /></linearGradient><linearGradient
       id="linearGradient2"
       inkscape:collect="always"><stop
         style="stop-color:#04e3ba;stop-opacity:1"
         offset="0"
         id="stop2" /><stop
         style="stop-color:#00a3fc;stop-opacity:1"
         offset="1"
         id="stop3" /></linearGradient><linearGradient
       inkscape:collect="always"
       xlink:href="#linearGradient2"
       id="linearGradient3"
       x1="54.275822"
       y1="122.30734"
       x2="138.14874"
       y2="122.30734"
       gradientUnits="userSpaceOnUse"
       gradientTransform="translate(2.6458334)" /><linearGradient
       inkscape:collect="always"
       xlink:href="#linearGradient7"
       id="linearGradient6"
       gradientUnits="userSpaceOnUse"
       x1="96.21228"
       y1="139.75188"
       x2="96.21228"
       y2="116.28751"
       gradientTransform="translate(2.6458334)" /><linearGradient
       inkscape:collect="always"
       xlink:href="#linearGradient9"
       id="linearGradient8"
       gradientUnits="userSpaceOnUse"
       x1="122.63473"
       y1="164.2438"
       x2="106.49423"
       y2="136.28764"
       gradientTransform="translate(2.6458334)" /><linearGradient
       inkscape:collect="always"
       xlink:href="#linearGradient26"
       id="linearGradient27"
       x1="67.886307"
       y1="118.48377"
       x2="101.13724"
       y2="152.81676"
       gradientUnits="userSpaceOnUse"
       gradientTransform="matrix(1.0196697,0,0,1,1.6023496,0)" /><linearGradient
       inkscape:collect="always"
       xlink:href="#linearGradient28"
       id="linearGradient29"
       x1="83.909615"
       y1="83.03511"
       x2="98.306328"
       y2="125.83937"
       gradientUnits="userSpaceOnUse"
       gradientTransform="translate(2.6458334)" /><linearGradient
       inkscape:collect="always"
       xlink:href="#linearGradient30"
       id="linearGradient31"
       x1="67.443581"
       y1="116.01547"
       x2="89.65715"
       y2="160.21091"
       gradientUnits="userSpaceOnUse"
       gradientTransform="translate(2.6458334)" /></defs><g
     inkscape:groupmode="layer"
     id="layer2"
     inkscape:label="bg"
     style="display:inline;opacity:1"
     transform="translate(-53.050438,-75.249873)"><rect
       style="fill:url(#linearGradient3);fill-opacity:1;stroke-width:0.355445"
       id="rect1"
       width="83.872917"
       height="83.872917"
       x="56.921658"
       y="80.37088"
       rx="18.520834"
       ry="18.520834" /><rect
       style="fill:url(#linearGradient6);fill-opacity:1;stroke-width:0.355445"
       id="rect6"
       width="83.872917"
       height="83.872917"
       x="56.921658"
       y="80.37088"
       rx="18.520834"
       ry="18.520834" /><rect
       style="fill:url(#linearGradient8);fill-opacity:1;stroke-width:0.355445"
       id="rect7"
       width="83.872917"
       height="83.872917"
       x="56.921658"
       y="80.37088"
       rx="18.520834"
       ry="18.520834" /></g><g
     inkscape:groupmode="layer"
     id="layer3"
     inkscape:label="Paw"
     style="display:inline"
     transform="translate(-53.050438,-75.249873)"><g
       inkscape:groupmode="layer"
       id="layer4"
       inkscape:label="Paw Bg"
       style="display:inline;opacity:1"><path
         id="path17"
         style="color:#000000;fill:#3becde;fill-opacity:1;-inkscape-stroke:none"
         sodipodi:type="inkscape:offset"
         inkscape:radius="0.62534863"
         inkscape:original="M 96.109375 97.878906 C 89.190832 98.025055 84.45584 103.56294 80.871094 107.19141 C 77.195764 110.91157 74.95001 115.93044 74.138672 120.61914 C 73.327334 125.30784 73.839517 129.78352 76.496094 132.32812 C 77.638672 133.42255 79.12412 133.4793 80.880859 133.52344 C 82.637598 133.56754 84.690469 133.40747 86.751953 133.18164 C 88.813437 132.95581 90.879085 132.66155 92.605469 132.42578 C 94.331852 132.19001 95.781326 132.01953 96.316406 132.01953 C 96.851487 132.01953 98.302959 132.19001 100.0293 132.42578 C 101.75563 132.66155 103.82139 132.95581 105.88281 133.18164 C 107.94423 133.40747 109.99526 133.56758 111.75195 133.52344 C 113.50865 133.47934 114.99611 133.42253 116.13867 132.32812 C 118.79523 129.78355 119.30534 125.30785 118.49414 120.61914 C 117.68294 115.93043 115.43901 110.91158 111.76367 107.19141 C 108.05204 103.43451 103.07531 97.731755 96.109375 97.878906 z "
         d="m 96.095703,97.253906 c -7.245992,0.153066 -12.115262,5.900034 -15.669922,9.498044 -3.783445,3.8296 -6.070733,8.95391 -6.902344,13.75977 -0.830276,4.79815 -0.351091,9.49737 2.541016,12.26758 1.330304,1.27424 3.039438,1.32488 4.800781,1.36914 1.806907,0.0454 3.880721,-0.11847 5.955078,-0.34571 2.074985,-0.2273 4.145614,-0.52243 5.869141,-0.75781 1.719928,-0.23489 3.2247,-0.40039 3.626953,-0.40039 0.402254,0 1.909086,0.16551 3.628906,0.40039 1.723478,0.23538 3.794228,0.53051 5.869138,0.75781 2.07425,0.22724 4.14626,0.39111 5.95313,0.34571 1.76131,-0.0442 3.47219,-0.0947 4.80273,-1.36914 2.89221,-2.77029 3.36917,-7.46961 2.53907,-12.26758 -0.83145,-4.80573 -3.11687,-9.93009 -6.9004,-13.75977 -3.68568,-3.73063 -8.79999,-9.652532 -16.113277,-9.498044 z"
         transform="translate(2.6458334)" /><path
         id="ellipse16"
         style="display:inline;fill:#3becde;fill-opacity:1;stroke-width:0.999948"
         d="m 127.51546,89.016411 c -2.86468,-1.09423 -5.95677,-0.528088 -8.48368,1.043208 -2.51839,1.566003 -4.5807,4.124701 -5.76036,7.310069 -1.17966,3.185372 -1.2888,6.490122 -0.41077,9.353462 0.88111,2.87332 2.84048,5.36664 5.70471,6.4607 2.86422,1.09405 5.95583,0.53008 8.483,-1.04138 2.5184,-1.566 4.5807,-4.1247 5.76036,-7.31007 1.17966,-3.18536 1.28882,-6.49011 0.41077,-9.353462 -0.881,-2.873032 -2.83934,-5.368293 -5.70403,-6.462527 z" /><path
         id="ellipse14"
         style="display:inline;fill:#3becde;fill-opacity:1;stroke-width:0.999972"
         d="m 109.70983,75.423233 c -3.05576,-0.425056 -5.97246,0.821763 -8.12373,2.949801 -2.145782,2.122614 -3.624351,5.135267 -4.077208,8.578418 -0.452858,3.443153 0.193977,6.753238 1.714442,9.386008 1.524246,2.639302 4.014076,4.63817 7.069836,5.06322 3.05576,0.42506 5.9742,-0.82128 8.12567,-2.949529 2.14595,-2.122774 3.62459,-5.137205 4.07745,-8.580357 0.45285,-3.443152 -0.19433,-6.751497 -1.71469,-9.384069 -1.52439,-2.639562 -4.01601,-4.638437 -7.07177,-5.063492 z" /><path
         id="path12"
         style="display:inline;fill:#3becde;stroke-width:0.999991"
         d="m 72.409507,88.595703 c -0.723242,0.07104 -1.446454,0.234873 -2.152344,0.501953 -2.821062,1.067373 -4.730352,3.525019 -5.580078,6.345703 -0.846762,2.810845 -0.724672,6.052061 0.439453,9.185551 1.164151,3.13355 3.185531,5.66031 5.658203,7.21875 2.481857,1.5642 5.528586,2.14744 8.34961,1.08007 2.821065,-1.06737 4.730349,-3.52503 5.580078,-6.3457 0.846482,-2.80991 0.728861,-6.05129 -0.435547,-9.185546 -1.164435,-3.134321 -3.189897,-5.660606 -5.66211,-7.21875 -1.861475,-1.173217 -4.025234,-1.795383 -6.197265,-1.582031 z" /><ellipse
         style="display:inline;fill:#3becde;fill-opacity:1;stroke:none;stroke-width:2.61003;stroke-dasharray:none;stroke-opacity:1"
         id="ellipse9"
         cx="76.342461"
         cy="99.735161"
         rx="10.694252"
         ry="13.383213"
         transform="matrix(0.99104444,-0.13353245,0.13841229,0.9903747,0,0)" /><ellipse
         style="display:inline;fill:#feffe8;fill-opacity:1;stroke:#000000;stroke-width:2.61001;stroke-dasharray:none;stroke-opacity:1"
         id="path9"
         cx="76.658936"
         cy="99.82959"
         rx="8.4721966"
         ry="10.806511"
         transform="matrix(0.99068779,-0.1361532,0.1357497,0.99074316,0,0)" /><ellipse
         style="display:inline;fill:#feffe8;fill-opacity:1;stroke:#000000;stroke-width:2.61003;stroke-dasharray:none;stroke-opacity:1"
         id="ellipse10"
         cx="34.838028"
         cy="120.91006"
         rx="7.8870564"
         ry="10.363845"
         transform="matrix(0.93529235,-0.353876,0.34825445,0.93740004,0,0)" /><ellipse
         style="display:inline;fill:#feffe8;fill-opacity:1;stroke:#000000;stroke-width:2.61004;stroke-dasharray:none;stroke-opacity:1"
         id="ellipse13"
         cx="118.61214"
         cy="72.69088"
         rx="8.4733753"
         ry="10.979411"
         transform="matrix(0.99046379,0.13777333,-0.13040106,0.99146133,0,0)" /><ellipse
         style="display:inline;fill:#feffe8;fill-opacity:1;stroke:#000000;stroke-width:2.61008;stroke-dasharray:none;stroke-opacity:1"
         id="ellipse15"
         cx="150.50035"
         cy="50.543705"
         rx="8.1189184"
         ry="10.54749"
         transform="matrix(0.93417025,0.35682761,-0.34728716,0.93775883,0,0)" /><path
         id="path16"
         style="fill:#feffe8;fill-opacity:1;stroke:#000000;stroke-width:2.61;stroke-dasharray:none;stroke-opacity:1"
         d="m 84.444459,108.10916 c -6.89163,6.97569 -8.637441,19.2175 -4.400248,23.2761 2.321792,2.22393 15.934708,-0.66993 18.918742,-0.66993 2.984047,0 16.596457,2.89386 18.918237,0.66993 4.2372,-4.0586 2.49191,-16.30041 -4.39972,-23.2761 -3.74961,-3.79534 -8.48268,-9.057593 -14.698626,-8.926285 -6.215931,0.131307 -10.705955,5.249555 -14.338385,8.926285 z"
         sodipodi:nodetypes="sszsscs" /></g><g
       inkscape:groupmode="layer"
       id="layer5"
       inkscape:label="Pawpads"><path
         id="ellipse18"
         style="display:inline;opacity:1;fill:url(#linearGradient29);fill-opacity:1;stroke:none;stroke-width:2.61001;stroke-dasharray:none;stroke-opacity:1"
         d="m 108.46368,82.179997 c -0.1662,0.0017 -0.33587,0.01953 -0.5085,0.05478 -2.65782,0.649254 -4.16233,3.362957 -4.61884,5.880261 -0.56701,2.808862 0.044,6.134078 2.38436,7.990727 1.42893,0.923297 3.41511,0.443332 4.45399,-0.845943 2.62585,-2.609746 3.20328,-6.886961 1.80609,-10.244853 -0.62213,-1.383867 -1.91049,-2.851764 -3.5171,-2.834969 z m -19.645844,0.001 c -0.07735,0.0012 -0.155104,0.0053 -0.233061,0.0124 -2.384521,0.467718 -3.679645,2.986247 -3.838008,5.231722 -0.402344,3.2354 0.892891,6.935797 3.872632,8.544181 1.663092,0.767155 3.749381,-0.132545 4.498433,-1.766301 1.948809,-3.289947 1.332798,-7.829458 -1.257288,-10.595735 -0.796985,-0.809924 -1.882384,-1.44416 -3.042708,-1.42627 z M 73.512827,95.410714 c -0.170677,0.0011 -0.342556,0.01544 -0.515731,0.04444 -1.837623,0.591611 -2.549795,2.724198 -2.457214,4.491716 -0.05315,3.3182 1.794453,6.85278 4.988843,8.08426 1.388439,0.44119 2.965022,-0.40696 3.401859,-1.78904 1.178303,-2.73885 0.349213,-5.97936 -1.312581,-8.335922 -0.94418,-1.273414 -2.455301,-2.505759 -4.105176,-2.495455 z m 50.694593,0.08217 c -0.0799,-3.2e-5 -0.16099,0.0045 -0.24288,0.01344 -2.93673,0.445429 -4.90991,3.186428 -5.60431,5.904036 -0.62325,2.28098 -0.44842,5.12402 1.45315,6.76289 1.54075,1.03151 3.58203,0.19298 4.72322,-1.01596 2.55917,-2.373 3.65207,-6.37671 2.32854,-9.651088 -0.49214,-1.02959 -1.45919,-2.012831 -2.65772,-2.013314 z m -25.391745,7.400586 c -0.177282,0.003 -0.354489,0.0123 -0.531233,0.0284 -3.74957,0.48356 -6.634096,3.19982 -9.203056,5.74746 -2.839889,2.70267 -5.44391,5.88899 -6.566008,9.74204 -0.866489,2.59781 -1.345095,5.33406 -0.809252,8.07702 0.178055,0.61422 0.25127,1.33763 0.63717,1.84744 0.802694,0.27832 1.696126,0.0735 2.533179,0.15244 4.810914,-0.0875 9.587408,-1.33832 14.464233,-1.38751 3.474072,0.10724 6.858922,0.84812 10.307912,1.16117 1.93451,0.1949 3.90362,0.36629 5.83685,0.11524 0.60052,-0.56492 0.6318,-1.51767 0.82476,-2.28565 0.45825,-3.05481 -0.30375,-6.30903 -1.45521,-9.20306 -1.28805,-3.18346 -3.50874,-5.87695 -5.99963,-8.19898 -2.45512,-2.32366 -5.02701,-4.91506 -8.45377,-5.64823 -0.521687,-0.10444 -1.054097,-0.15599 -1.585945,-0.1478 z" /></g></g><g
     inkscape:groupmode="layer"
     id="layer6"
     inkscape:label="tail"
     transform="translate(-53.050438,-75.249873)"><path
       id="path24"
       style="display:inline;vector-effect:non-scaling-stroke;fill:#3becde;stroke-width:0.264583;-inkscape-stroke:hairline"
       d="m 76.164629,116.38023 c -6.233124,0.0617 -10.197337,-2.08119 -13.856083,2.25063 -2.109731,2.49784 -3.327589,5.67168 -3.897448,9.3125 -1.405551,0.43014 -2.449872,1.59213 -2.708498,3.01367 -0.106964,5.56708 1.12122,11.4969 5.289537,17.69141 2.60541,3.87188 9.079544,11.5861 17.181036,14.57617 1.006482,0.33246 2.107137,0.2529 3.053035,-0.2207 0.722773,0.40666 1.398313,0.78293 2.168789,1.17578 3.364626,1.71554 7.413029,3.11636 12.451123,3.01367 2.010176,-0.0517 3.659042,-1.57785 3.827744,-3.54297 7.183676,-0.32928 13.393626,-3.29827 17.951786,-6.75 2.69726,-2.04254 4.88068,-4.21252 6.51632,-6.12305 1.63564,-1.91053 2.65342,-3.25218 3.34181,-4.94922 0.44343,-1.28332 0.16995,-2.70063 -0.72095,-3.73632 1.10399,-2.76105 2.25826,-5.41275 3.58479,-7.6211 2.19733,-3.65804 4.60414,-6.00726 7.67938,-6.9082 3.06341,-0.89819 3.82187,-4.80984 1.30844,-6.74805 -4.56962,-3.52382 -10.53792,-3.66034 -16.33661,-2.5664 -5.7987,1.09394 -11.7871,3.50526 -17.27862,6.28711 -3.69595,1.87225 -8.177246,4.32574 -11.977159,7.51562 -0.393926,0.33069 -0.605958,0.48579 -0.96789,0.80078 -0.412709,-0.16203 -1.987224,0.85469 -2.431352,0.83572 -5.609157,0.36811 -8.133013,0.62952 -9.215285,-0.20218 -1.08227,-0.83169 -4.100172,-0.9782 -5.016588,-3.00821 1.233021,0.94002 0.385964,-2.13158 0.430951,-3.23055 0.04499,-1.09898 0.01273,-2.54624 0.245956,-3.87188 0.466458,-2.65127 0.400518,-4.33852 0.400518,-4.33852 0.682613,-2.47486 1.58937,-2.68141 -1.024732,-2.65571 z"
       sodipodi:nodetypes="csccsccsccssccscssssccscsscc" /><path
       id="path23"
       style="display:inline;vector-effect:non-scaling-stroke;fill:#000000;fill-opacity:1;stroke:none;stroke-width:0.262019;stroke-dasharray:none;stroke-opacity:1;-inkscape-stroke:hairline"
       sodipodi:type="inkscape:offset"
       inkscape:radius="2.2228947"
       inkscape:original="M 74.851562 116.25391 C 64.045892 116.36304 57.914348 122.37598 59.380859 136.32031 C 57.973091 135.26 57.555297 133.01704 56.923828 131.0293 C 56.829038 136.05979 57.784502 140.92883 61.472656 146.51758 C 63.469035 149.54274 70.283374 157.28015 76.457031 159.60352 C 76.021562 158.00156 74.451062 156.44986 72.546875 155.5293 C 79.797946 158.87028 83.903909 163.50163 92.345703 163.32617 C 91.103822 161.7576 88.723856 160.47567 86.117188 159.16406 C 88.625899 159.20346 91.692982 159.75681 92.673828 159.86133 C 107.59593 161.4515 118.67941 147.36456 119.85938 144.39844 C 118.93689 144.35234 117.94473 145.40179 117.02344 146.29297 C 120.41692 136.90217 124.15787 126.40293 132.68555 123.85547 C 126.35535 118.87798 114.21615 122.63614 103.88477 127.97266 C 100.36693 129.78975 96.192987 132.15346 92.878906 134.99023 C 89.132909 138.19671 86.234095 141.83296 80.439453 141.25586 C 84.226264 140.29165 86.99953 138.62597 88.917969 136.36914 C 76.704574 138.8596 75.08398 132.67433 73.572266 129.25977 C 72.183821 126.12364 74.851562 116.25391 74.851562 116.25391 z "
       d="m 74.830078,114.03125 c -5.810839,0.0587 -10.81687,1.77454 -14.027344,5.65039 -2.026692,2.44673 -3.155839,5.68733 -3.58789,9.5293 a 2.223117,2.223117 0 0 0 -2.513672,1.77734 c -0.1006,5.33882 0.998158,10.81708 4.916015,16.75391 2.317458,3.5117 8.865023,11.23494 16.056641,13.9414 a 2.223117,2.223117 0 0 0 2.279297,-0.63476 c 0.975709,0.57212 1.998736,1.13819 3.021484,1.66992 3.167161,1.64662 6.783345,2.92641 11.417969,2.83008 a 2.223117,2.223117 0 0 0 1.726563,-3.50196 c 7.469289,0.2631 13.945219,-2.80852 18.660159,-6.44921 2.53743,-1.95931 4.60126,-4.05244 6.13476,-5.87891 1.53351,-1.82647 2.49831,-3.20747 3.01172,-4.49805 a 2.223117,2.223117 0 0 0 -1.09765,-2.71289 c 1.2086,-3.16774 2.47946,-6.26346 4.01562,-8.87109 2.26999,-3.85331 4.93175,-6.59087 8.47852,-7.65039 a 2.223117,2.223117 0 0 0 0.73632,-3.87891 c -3.92151,-3.08351 -9.24871,-3.29149 -14.69336,-2.24414 -5.44464,1.04735 -11.20795,3.40124 -16.5,6.13477 -3.579203,1.84879 -7.88051,4.26306 -11.431636,7.30273 -0.548506,0.46951 -0.948308,0.76511 -1.449219,1.21484 a 2.223117,2.223117 0 0 0 -1.509766,-0.32421 c -5.734827,1.1694 -8.359052,0.27271 -9.871093,-0.91211 -1.512042,-1.18483 -2.160089,-3.0272 -2.998047,-4.91993 -0.06572,-0.14843 -0.24595,-1.15254 -0.197266,-2.36523 0.04868,-1.21269 0.236287,-2.66524 0.472656,-4.03516 0.47274,-2.73982 1.117188,-5.125 1.117188,-5.125 a 2.223117,2.223117 0 0 0 -2.167969,-2.80273 z"
       transform="matrix(1.0196697,0,0,1,1.6023496,0)" /><path
       style="display:inline;vector-effect:non-scaling-stroke;fill:url(#linearGradient31);fill-opacity:1;stroke:none;stroke-width:0.264583;stroke-dasharray:none;stroke-opacity:1;-inkscape-stroke:hairline"
       d="m 77.926009,116.25378 c -11.018214,0.10913 -17.270113,6.12201 -15.774756,20.06634 -1.435459,-1.06031 -1.861064,-3.30381 -2.504954,-5.29155 -0.09665,5.03049 0.877022,9.90046 4.637721,15.48921 2.035647,3.02516 8.984875,10.7614 15.279966,13.08477 -0.444035,-1.60196 -2.045464,-3.15175 -3.987105,-4.07231 7.393697,3.34098 11.580621,7.9706 20.188462,7.79514 -1.266308,-1.56857 -3.694215,-2.84941 -6.352155,-4.16102 2.558056,0.0394 5.685755,0.59202 6.685894,0.69654 15.215638,1.59017 26.516808,-12.49542 27.719988,-15.46154 -0.94064,-0.0461 -1.95274,1.0034 -2.89215,1.89458 3.46023,-9.3908 7.27559,-19.89069 15.971,-22.43815 -6.45471,-4.97749 -18.83315,-1.21979 -29.36775,4.11673 -3.58703,1.81709 -7.842438,4.18079 -11.221706,7.01756 -3.819679,3.20648 -6.775787,6.84325 -12.684408,6.26615 3.861296,-0.96421 6.688745,-2.62988 8.64492,-4.88671 -12.453629,2.49046 -14.106614,-3.69467 -15.648063,-7.10923 -1.415755,-3.13613 1.305096,-13.00651 1.305096,-13.00651 z"
       id="path22"
       sodipodi:nodetypes="cccsccccscccssccsc" /><path
       style="vector-effect:non-scaling-stroke;fill:url(#linearGradient27);fill-opacity:1;stroke:none;stroke-width:0.264583;stroke-linecap:square;stroke-linejoin:round;stroke-dasharray:none;stroke-opacity:1;-inkscape-stroke:hairline"
       d="m 67.801895,121.9552 c -21.049526,33.09139 38.557575,41.00882 41.932285,25.32826 -1.71124,0.89872 -3.37804,1.82674 -5.7108,2.31562 2.38268,-2.20034 3.56116,-4.10177 4.58843,-5.73745 -2.83498,1.8929 -4.81954,3.57493 -9.653138,4.80657 2.752348,-2.39803 7.975358,-8.12297 10.379078,-12.18321 -6.35723,1.22676 -9.974467,2.55364 -17.224146,5.73584 3.017109,-0.0369 5.549373,0.44449 7.270058,1.36953 -13.518873,16.59389 -44.418509,-9.87979 -22.745268,-21.26987 l 1.011645,-5.10505 c -3.618528,1.01631 -7.222394,1.78577 -9.848144,4.73976 z"
       id="path25"
       sodipodi:nodetypes="ccccccccccc" /></g></svg>
