<?xml version="1.0" encoding="UTF-8"?>
<svg width="933.33" height="933.33" version="1" viewBox="0 0 700 700" xmlns="http://www.w3.org/2000/svg">
 <path d="m188 208-57.999 96.1c-31.9 55.2-54.901 96.3-54.801 96.7s26.201 45.8 58.001 100.9l50.3 100.19 176.3-0.21926 59.7-3.9807 52.298-97.189c31.6-54.7 54.6-97.2 54.8-98s-22.7-44.999-54.5-100l-57.8-95.5-113.9-3.2007z" fill="#fff" stroke-width=".76745"/>
 <g stroke-width=".1">
  <path d="m125.5 299.6c-31.9 55.2-57.9 100.8-57.8 101.2s26.2 45.8 58 100.9l57.8 100.3h28.5v-79.6l2.9-4.5c5.5-8.5 11.6-12 20.8-12 9.6 0 17.2 5.3 21.5 14.8 1.6 3.7 1.8 6.6 1.6 28l-0.3 23.8h-17l-0.3-25.7-0.2-25.8h-11v62.9l14.3 0.3 14.2 0.3 0.3 8.7 0.3 8.8h11.9v-36h29v-63h-11v51h-18v-25.3c0-23.8 0.1-25.4 2.1-28.7 4.5-7.6 10.3-11.5 18.2-12.6 8.6-1.2 18.9 4.1 23.4 12.1 2.2 4 2.3 4.5 2.3 43.2v39.3h-28v20h11v-10h17v10h25v-81h-12.1l0.3-7.8 0.3-7.7 4-0.3c9.5-0.8 17.8 3.8 21.9 12l2.6 5.2v79.6l29.1-0.2 29.2-0.3 57.5-99.5c31.6-54.7 57.6-100.2 57.8-101s-25.7-46.5-57.5-101.5l-57.8-100-116.9-0.2-116.9-0.3zm203-52.6c19.2 4.9 34.7 13.9 48.4 27.9 14.9 15.4 23.1 29.4 28.2 47.9 1.7 5.9 2.3 11.6 2.6 24.5 0.4 10.5 0.2 17.2-0.5 17.9-0.5 0.5-36.3 3.2-80.3 5.9-43.6 2.8-79.6 5.2-79.8 5.5-0.9 0.8 3.6 8.5 8.4 14.7 8.4 10.7 21.2 19 34.5 22.3 8.4 2.1 23.8 1.4 33.1-1.5 7.3-2.3 16.6-7.9 23.4-14.2l4.5-4.1 14.3 13c7.9 7.2 14.9 13.7 15.5 14.5 1 1.2 0 2.6-5.3 7.5-14.1 13.3-28 21.2-45 25.8-8.9 2.4-11.8 2.7-26.5 2.7-18 0.1-23.6-0.8-37.7-6.3-16.7-6.4-37.8-23.4-48.2-38.9-21.4-31.6-24.1-77.3-6.5-111.1 1.9-3.6 6.3-10.4 9.9-15.1 17.7-23.7 40.9-37.1 71-41.3 7.1-1 28.3 0.4 36 2.4z" fill="#00549f"/>
  <path d="m344.5 44.2c-10.7 4-23.6 16.7-37.4 36.7-2.8 4.1-5.1 7.8-5.1 8.2s2.1 1 4.7 1.4c5.7 0.8 16.7 4.7 24.8 8.7 7.4 3.7 13.4 8.1 29.5 21.8 6.9 5.9 14.7 12.2 17.4 14l4.9 3.3-0.7-14.4c-2-41.1-9.9-69.4-21.8-78.2-3.2-2.4-11.9-3.2-16.3-1.5z" fill="#fdba31"/>
  <path d="m563 216.1c-4.1 0.5-7.8 1-8.3 1.2-0.4 0.1 2 3.4 5.5 7.2 13.5 15.3 17.9 25.4 17.9 41.7 0.1 11.3-1.1 17.8-5.3 29.1-3.4 9.2-4.1 18-1.7 23.4l1.4 3.3 13.8-13.2c47.6-45.2 58.5-74.5 32.5-87.3-11.9-5.8-33.9-7.9-55.8-5.4z" fill="#fdba31"/>
  <path d="m290.3 288.4c-13.4 3.1-26.8 11.9-35 22.9-4.9 6.6-12 20.4-11 21.4 0.7 0.6 115.7-6.4 116.5-7.1 0.2-0.3-1.1-3.3-3-6.7-6.4-12.2-21-24.2-35.1-29.1-7.9-2.7-23.6-3.3-32.4-1.4zm-60.7 313.1c-0.4 1.2-2.4 1.5-9.1 1.5h-8.5v18.2c0 16.4 0.2 18.6 2.1 22.5 6.7 13.8 24.9 17.6 36 7.6 7.3-6.6 7.9-8.7 7.9-29.8v-18.5h-8.5c-6.9 0-8.5-0.3-8.5-1.5 0-1.1-1.3-1.5-5.4-1.5-3.9 0-5.5 0.4-6 1.5zm11.2 20.7-0.3 19.3-5.2 0.3-5.3 0.3v-39.1h11zm30.2-1.7v17.5h46v-35h-17v20.1l-5.7-0.3-5.8-0.3-0.3-9.8-0.3-9.7h-16.9zm71 9v26.5h17v-53h-17z" fill="#00549f"/>
 </g>
</svg>
